<?xml version="1.0" encoding="UTF-8" standalone="no"?>
<svg
   version="1.2"
   viewBox="0 0 71 71"
   width="71"
   height="71"
   id="svg497"
   sodipodi:docname="Icons pack.svg"
   xmlns:inkscape="http://www.inkscape.org/namespaces/inkscape"
   xmlns:sodipodi="http://sodipodi.sourceforge.net/DTD/sodipodi-0.dtd"
   xmlns="http://www.w3.org/2000/svg"
   xmlns:svg="http://www.w3.org/2000/svg">
  <defs
     id="defs497" />
  <sodipodi:namedview
     id="namedview497"
     pagecolor="#ffffff"
     bordercolor="#000000"
     borderopacity="0.25"
     inkscape:showpageshadow="2"
     inkscape:pageopacity="0.0"
     inkscape:pagecheckerboard="0"
     inkscape:deskcolor="#d1d1d1">
    <inkscape:page
       x="0"
       y="0"
       width="71"
       height="71"
       id="page2"
       margin="0"
       bleed="0" />
  </sodipodi:namedview>
  <title
     id="title1">vecteezy_cool-and-minimalist-ui-ux-vector-icon-pack-a-great-choice_24353151</title>
  <style
     id="style1">
		.s0 { fill: #11131e } 
		.s1 { fill: #0c75e8 } 
		.s2 { fill: #5a5d6b } 
		.s3 { fill: #ffffff } 
	</style>
  <g
     id="Layer 1"
     transform="translate(-1327,-680.5)">
    <g
       id="g497">
      <g
         id="g56">
        <path
           id="path54"
           fill-rule="evenodd"
           class="s3"
           d="m 1398,716 c 0,19.6 -15.9,35.5 -35.5,35.5 -19.6,0 -35.5,-15.9 -35.5,-35.5 0,-19.6 15.9,-35.5 35.5,-35.5 19.6,0 35.5,15.9 35.5,35.5 z m -7.1,0 c 0,-15.7 -12.8,-28.4 -28.4,-28.4 -15.7,0 -28.4,12.7 -28.4,28.4 0,15.7 12.7,28.4 28.4,28.4 15.6,0 28.4,-12.7 28.4,-28.4 z" />
        <path
           id="path55"
           class="s3"
           d="m 1373.1,705.3 h -21.3 c -1.9,0 -3.5,1.6 -3.5,3.6 0,2 1.6,3.5 3.5,3.5 h 21.3 c 2,0 3.6,-1.5 3.6,-3.5 0,-2 -1.6,-3.6 -3.6,-3.6 z" />
        <path
           id="path56"
           class="s3"
           d="m 1373.1,719.5 h -21.3 c -1.9,0 -3.5,1.6 -3.5,3.6 0,2 1.6,3.5 3.5,3.5 h 21.3 c 2,0 3.6,-1.5 3.6,-3.5 0,-2 -1.6,-3.6 -3.6,-3.6 z" />
      </g>
    </g>
  </g>
</svg>
